<?xml version="1.0" encoding="UTF-8" standalone="no"?>
<!-- Created with Inkscape (http://www.inkscape.org/) -->

<svg
   xmlns:dc="http://purl.org/dc/elements/1.1/"
   xmlns:cc="http://creativecommons.org/ns#"
   xmlns:rdf="http://www.w3.org/1999/02/22-rdf-syntax-ns#"
   xmlns:svg="http://www.w3.org/2000/svg"
   xmlns="http://www.w3.org/2000/svg"
   xmlns:sodipodi="http://sodipodi.sourceforge.net/DTD/sodipodi-0.dtd"
   xmlns:inkscape="http://www.inkscape.org/namespaces/inkscape"
   width="210mm"
   height="297mm"
   viewBox="0 0 210 297"
   version="1.1"
   id="svg8"
   inkscape:version="0.92.3 (3ce5693, 2018-03-11)"
   sodipodi:docname="bonfire.svg">
  <defs
     id="defs2" />
  <sodipodi:namedview
     id="base"
     pagecolor="#ffffff"
     bordercolor="#666666"
     borderopacity="1.0"
     inkscape:pageopacity="0.0"
     inkscape:pageshadow="2"
     inkscape:zoom="0.35"
     inkscape:cx="400"
     inkscape:cy="560"
     inkscape:document-units="mm"
     inkscape:current-layer="layer1"
     showgrid="false"
     inkscape:window-width="1280"
     inkscape:window-height="747"
     inkscape:window-x="0"
     inkscape:window-y="0"
     inkscape:window-maximized="1" />
  <metadata
     id="metadata5">
    <rdf:RDF>
      <cc:Work
         rdf:about="">
        <dc:format>image/svg+xml</dc:format>
        <dc:type
           rdf:resource="http://purl.org/dc/dcmitype/StillImage" />
        <dc:title></dc:title>
      </cc:Work>
    </rdf:RDF>
  </metadata>
  <g
     inkscape:label="Layer 1"
     inkscape:groupmode="layer"
     id="layer1">
    <path
       inkscape:connector-curvature="0"
       id="path4650"
       d="M -1.96548,147.32144 V 0.96905123 H 102.05357 206.07262 V 147.32144 293.67382 H 102.05357 -1.96548 Z"
       style="fill:#fdfdfd;stroke-width:1.28524256" />
    <path
       inkscape:connector-curvature="0"
       id="path4648"
       d="m 51.306604,228.77177 c -6.000848,-3.55005 -7.226435,-13.77392 -2.403116,-20.04685 1.146091,-1.49055 6.991261,-5.07722 12.989264,-7.97041 5.998003,-2.89317 10.90546,-5.638 10.90546,-6.0996 0,-0.4616 -5.337884,-3.47662 -11.861964,-6.70003 -12.487231,-6.16967 -15.22633,-9.2313 -15.22633,-17.01929 0,-5.22653 4.516963,-11.41368 8.348119,-11.43489 1.66593,-0.009 13.11872,4.87084 25.450644,10.84459 l 22.421689,10.86136 22.11231,-10.98042 c 22.18548,-11.01679 27.45417,-12.41849 27.15476,-7.2244 -0.12988,2.25323 0.12295,2.39395 1.47167,0.81906 1.33421,-1.55794 1.91592,-1.36099 3.21907,1.08989 1.88185,3.53929 1.26681,14.19872 -0.93027,16.12263 -0.79012,0.69186 -6.67816,3.85091 -13.08454,7.02008 -6.40639,3.16917 -11.64797,6.10658 -11.64797,6.52757 0,0.42099 5.37837,3.42277 11.95194,6.67064 12.38279,6.11806 15.13635,9.03977 15.13635,16.06068 0,2.06735 -1.09403,6.00526 -2.43117,8.75088 -3.18112,6.53195 -3.70232,6.41238 -30.96462,-7.10341 l -22.01871,-10.91618 -13.737842,6.39262 c -7.555812,3.51594 -14.788421,7.08502 -16.072467,7.9313 -1.284046,0.84627 -2.868711,1.07425 -3.521478,0.50664 -0.652767,-0.56762 -1.18685,-0.36851 -1.18685,0.44248 0,0.81099 -2.845309,2.82645 -6.322909,4.47881 -5.527669,2.62643 -6.754069,2.74922 -9.75104,0.97625 z m 43.0218,-44.0435 c -0.824262,-1.15972 -37.88919,-19.12088 -39.243267,-19.01675 -1.283731,0.0988 36.967799,19.48166 38.751651,19.63638 0.546279,0.0474 0.767507,-0.23146 0.491616,-0.61963 z m 22.693926,-3.03876 c 3.1673,-1.46527 5.56801,-2.93249 5.33488,-3.26048 -0.5495,-0.77313 -13.80245,5.51208 -13.80245,6.54581 0,0.43197 0.60949,0.46893 1.35442,0.0822 0.74493,-0.38682 3.94584,-1.90217 7.11315,-3.36744 z m 23.14323,-11.45164 c 4.9619,-2.41606 8.50362,-4.44449 7.87049,-4.50762 -1.50004,-0.14955 -20.12018,8.70559 -20.95937,9.9676 -0.76602,1.15197 1.15923,0.34886 13.08888,-5.45998 z m -47.32201,-5.13074 c -4.359421,-2.78782 -10.647977,-12.82216 -14.217139,-22.68559 -2.111269,-5.83453 -3.061078,-11.17318 -3.441734,-19.3452 -0.499964,-10.73328 -0.418725,-11.24744 1.656469,-10.48391 1.962453,0.72205 2.2407,-0.1045 2.762925,-8.20756 0.319388,-4.955762 1.214131,-10.084322 1.988316,-11.396799 1.261842,-2.139205 1.596932,-2.05737 3.23581,0.790253 1.802003,3.131056 1.891282,3.040455 6.230217,-6.322622 2.421107,-5.224559 6.823092,-12.851498 9.782196,-16.948755 6.34877,-8.790701 8.79769,-8.717008 8.79769,0.264744 0,7.938049 2.72545,20.317095 5.60851,25.473971 2.31059,4.132918 2.3811,4.154818 3.21127,0.997309 0.51809,-1.970512 1.45929,-2.898793 2.41563,-2.382463 2.37273,1.281057 6.10109,14.833512 6.10109,22.177242 0,5.05666 0.28895,6.09489 1.30024,4.67202 2.82087,-3.9689 4.43102,-2.12581 3.81234,4.36389 -1.33824,14.03798 -10.13985,31.4147 -18.93524,37.38324 -5.18792,3.52052 -16.008964,4.39981 -20.30859,1.65023 z m 19.06386,-10.0774 c 1.61563,-2.7229 3.42979,-7.67938 4.03145,-11.01441 l 1.09392,-6.06369 -4.10481,0.97575 c -4.05692,0.96436 -4.11374,0.90869 -4.87123,-4.77234 -0.42154,-3.16145 -1.74989,-8.46038 -2.9519,-11.7754 l -2.18548,-6.02733 -1.84691,7.67596 c -2.654044,11.03044 -5.260549,16.12174 -7.77915,15.19507 -1.809052,-0.66561 -2.075048,0.0849 -2.075048,5.85482 0,8.37692 1.491537,13.95862 4.001714,14.97539 1.07674,0.43616 4.61095,0.59812 7.853814,0.35995 5.14403,-0.37782 6.27078,-1.06453 8.83363,-5.38377 z"
       style="fill:#a1d1d0;stroke-width:1.28524256" />
    <path
       inkscape:connector-curvature="0"
       id="path4646"
       d="m 48.988074,226.63443 c -3.366338,-4.73636 -3.896881,-10.33627 -1.424475,-15.03541 1.556287,-2.95793 5.41547,-5.71458 14.220272,-10.15769 6.646374,-3.35391 12.086394,-6.44103 12.088934,-6.86027 0.0025,-0.41924 -5.645381,-3.4878 -12.550934,-6.81903 -10.672508,-5.14838 -12.797968,-6.71634 -14.171924,-10.45459 -2.828097,-7.69467 1.00828,-17.78997 6.760473,-17.78997 1.530564,0 12.623221,4.84201 24.650348,10.76001 12.989757,6.39167 22.967232,10.49074 24.576342,10.09676 1.48985,-0.36477 12.22016,-5.34418 23.84514,-11.06534 14.00184,-6.89092 21.83501,-10.02488 23.20624,-9.28453 1.56729,0.84619 1.76548,1.54589 0.81617,2.88155 -0.68956,0.9702 -2.03128,1.92455 -2.9816,2.1208 -2.7941,0.57698 -92.620607,45.22419 -92.194247,45.82406 0.480322,0.6758 92.632017,-43.0726 95.239867,-45.2145 4.56488,-3.74924 7.07107,0.36407 5.67413,9.31274 -0.81669,5.23165 -5.1724,8.57562 -19.74534,15.15892 -4.32058,1.95182 -7.8556,3.99117 -7.8556,4.53189 0,0.54071 1.99491,1.82406 4.43313,2.85186 2.43823,1.02781 8.21809,3.90231 12.84414,6.38776 8.47576,4.55381 10.89455,7.87515 10.89455,14.95981 0,4.92278 -4.19659,10.8054 -7.70843,10.8054 -1.76936,0 -13.29089,-4.94312 -25.6034,-10.98471 l -22.38636,-10.98471 -13.304324,6.51925 c -7.317373,3.58559 -13.759616,6.12334 -14.316095,5.63945 -0.556479,-0.48389 -1.195893,-0.10275 -1.420921,0.84715 -0.225028,0.94983 -1.363748,1.85895 -2.530491,2.02029 -1.166742,0.16134 -4.315502,1.77451 -6.997243,3.58482 -6.157115,4.15638 -11.261856,4.28282 -14.058352,0.34823 z M 150.69227,212.19779 c -1.08397,-1.52513 -28.53646,-14.5944 -29.60421,-14.09364 -0.63591,0.29823 5.42624,3.68955 13.47147,7.53626 14.15924,6.77002 17.14703,7.98444 16.13274,6.55738 z M 93.249944,183.89412 c -4.00895,-3.2952 -38.65177,-19.41213 -39.723177,-18.48048 -1.208243,1.05063 35.499692,19.51727 39.316783,19.77905 1.870858,0.12837 1.926407,-0.0492 0.406394,-1.29857 z m -1.056151,-19.69046 c -8.664941,-6.66333 -16.027463,-24.16883 -16.9475,-40.29522 -0.387729,-6.7961 -0.151557,-10.05872 0.787213,-10.87504 0.737615,-0.6414 1.70131,-0.34619 2.141545,0.65602 0.440236,1.00221 1.101102,-2.22525 1.468594,-7.17213 0.367491,-4.94689 0.98013,-10.138163 1.36142,-11.536168 0.949457,-3.481211 3.173989,-3.194055 4.365687,0.56355 0.871818,2.748976 1.605869,1.769013 6.395886,-8.538555 5.770808,-12.418123 13.886652,-24.128609 16.029642,-23.129433 0.72856,0.339694 1.61123,4.975368 2.00756,10.543387 0.71159,9.997219 3.6361,20.332403 6.79822,24.024764 1.43634,1.677195 1.70449,1.583605 1.70449,-0.594894 0,-4.627831 3.69889,-1.868805 5.86517,4.374879 1.14005,3.28585 2.29989,9.29929 2.57743,13.36321 0.42032,6.15453 0.76051,7.09013 2.03636,5.60035 2.74537,-3.20575 3.91575,0.56394 2.48924,8.01764 -4.17557,21.8178 -15.09578,36.16626 -28.45166,37.38366 -5.238124,0.47745 -7.593079,-0.0512 -10.629297,-2.38602 z m 16.882357,-4.67529 c 2.51179,-1.34364 8.14687,-15.16609 8.14687,-19.98371 0,-2.14229 -0.7413,-2.46472 -4.17621,-1.8165 -4.13481,0.7803 -4.18303,0.72973 -4.86256,-5.09971 -0.37749,-3.2383 -1.73771,-8.28891 -3.02272,-11.22358 l -2.33639,-5.33576 -1.33932,5.41912 c -2.395654,9.69318 -5.941328,18.21069 -7.58076,18.21069 -0.881802,0 -1.603276,-0.72652 -1.603276,-1.61448 0,-0.88796 -0.510982,-1.17014 -1.135515,-0.62707 -1.058762,0.92065 -0.623473,10.86201 0.788249,18.0025 1.207594,6.108 9.586842,8.09911 17.121632,4.0685 z"
       style="fill:#9e9e9f;stroke-width:1.28524256" />
    <path
       inkscape:connector-curvature="0"
       id="path4644"
       d="m 49.772823,226.62269 c -3.589013,-3.97205 -4.09271,-12.18114 -1.013266,-16.51385 1.081359,-1.52144 7.42002,-5.43917 14.085913,-8.70606 6.665893,-3.26688 12.119806,-6.31044 12.119806,-6.76348 0,-0.45302 -5.48538,-3.48066 -12.189733,-6.72806 -6.704353,-3.24743 -13.043014,-7.26736 -14.085913,-8.9332 -2.917981,-4.66094 -2.455609,-12.52212 0.958773,-16.30091 1.570224,-1.73782 3.504884,-3.15966 4.299244,-3.15966 0.79436,0 11.862813,5.10598 24.596563,11.34661 l 23.15228,11.34659 23.00011,-11.34659 c 12.65007,-6.24063 23.70118,-11.34661 24.55801,-11.34661 0.85685,0 1.54471,0.85753 1.52859,1.90563 -0.0161,1.0481 -4.03873,3.72726 -8.93913,5.95371 -20.67811,9.39486 -90.98561,44.60984 -89.993513,45.07511 0.594417,0.27879 23.957305,-10.41962 51.917533,-23.77422 27.96022,-13.35461 51.20247,-23.96637 51.64942,-23.58169 1.37661,1.1848 0.89755,12.37843 -0.62108,14.51224 -0.78856,1.108 -7.12624,4.75864 -14.08375,8.11254 -6.95751,3.35391 -12.64811,6.44103 -12.64578,6.86027 0.002,0.41924 5.48673,3.4101 12.18756,6.64637 6.70084,3.23626 13.03662,6.94424 14.07952,8.23993 4.16089,5.16947 0.85937,20.1773 -4.43874,20.1773 -1.20736,0 -12.56492,-5.08295 -25.23903,-11.29541 l -23.04384,-11.29541 -11.969134,5.94655 c -6.583022,3.27061 -12.829028,5.95246 -13.880014,5.95966 -1.050986,0.008 -2.757548,0.64305 -3.792361,1.41301 -11.982464,8.91565 -18.20593,10.66781 -22.198038,6.24963 z M 151.74331,212.15207 c -1.25581,-1.7669 -28.57765,-14.58891 -30.10632,-14.12875 -0.93783,0.28229 4.87731,3.68527 12.92254,7.56218 13.47751,6.49464 18.49559,8.41224 17.18378,6.56657 z M 94.956437,184.11359 c -1.888403,-2.42244 -41.464071,-20.80256 -42.291595,-19.64148 -0.448201,0.62886 -0.611748,1.37925 -0.36344,1.66752 0.24831,0.28828 8.984285,4.66341 19.413278,9.72251 17.674248,8.57378 25.719676,11.43012 23.241757,8.25145 z m -2.464168,-20.93684 c -8.883425,-6.22839 -15.844172,-22.58591 -17.162415,-40.33109 -0.704283,-9.4805 -0.697445,-9.51142 1.902246,-8.60137 2.421755,0.84776 2.625877,0.45353 2.843197,-5.4912 0.402024,-10.997241 1.40107,-16.313798 3.065565,-16.313798 0.86691,0 1.576199,0.988553 1.576199,2.196785 0,5.010031 2.163624,3.406917 5.544751,-4.108321 3.640783,-8.092372 15.768268,-27.05404 17.303198,-27.05404 0.45861,0 1.14131,3.944654 1.51712,8.765898 0.79955,10.257186 2.99589,19.42064 5.93777,24.77319 2.07446,3.774336 2.11102,3.781726 3.77423,0.762252 1.67385,-3.038787 1.68504,-3.038876 3.33766,-0.0265 1.93344,3.524294 4.84301,16.528854 4.84301,21.646254 0,3.8254 1.04712,4.50051 2.9116,1.87723 4.0885,-5.75242 1.28375,11.247 -3.96769,24.04798 -3.78365,9.22309 -8.56459,14.78628 -16.22801,18.8832 -7.28729,3.89585 -10.446804,3.70729 -17.198431,-1.02647 z m 14.188741,-2.22365 c 4.76332,-1.86115 9.1763,-10.0039 10.1914,-18.80497 l 0.64597,-5.6007 -4.4818,1.00833 c -4.30973,0.96963 -4.48182,0.85264 -4.48182,-3.04673 0,-4.44535 -2.1335,-12.23712 -4.58585,-16.74794 -1.45913,-2.68392 -1.69707,-2.32013 -3.46964,5.30473 -1.046704,4.50244 -2.884654,10.12574 -4.084344,12.49623 -2.078188,4.10633 -2.278092,4.18667 -4.230729,1.70039 -1.980863,-2.52223 -2.049274,-2.38477 -2.043434,4.10583 0.0099,10.95418 1.806383,17.71013 5.169368,19.43974 3.934415,2.02349 6.480259,2.05598 11.370879,0.14513 z"
       style="fill:#4dabaa;stroke-width:1.28524256" />
    <path
       inkscape:connector-curvature="0"
       id="path4642"
       d="m 49.648403,226.485 c -3.465426,-3.83529 -3.915008,-12.11842 -0.888846,-16.37616 1.081359,-1.52144 7.42002,-5.43917 14.085913,-8.70606 6.665893,-3.26688 12.119806,-6.31044 12.119806,-6.76348 0,-0.45302 -5.48538,-3.48066 -12.189733,-6.72806 -6.704353,-3.24743 -13.043014,-7.26736 -14.085913,-8.9332 -2.917981,-4.66094 -2.455609,-12.52212 0.958773,-16.30091 1.570224,-1.73782 3.504884,-3.15966 4.299244,-3.15966 0.79436,0 11.862813,5.10598 24.596563,11.34661 l 23.15228,11.34659 23.00011,-11.34659 c 12.65007,-6.24063 23.70118,-11.34661 24.55801,-11.34661 0.85685,0 1.55789,1.02904 1.55789,2.28676 0,1.25771 -0.65484,2.28675 -1.45521,2.28675 -2.81264,0 -97.628671,47.41522 -98.449474,49.23223 -1.513993,3.3515 -0.893974,8.5689 1.206235,10.15034 1.488182,1.12059 3.353787,0.92141 6.63742,-0.70862 9.22388,-4.57881 12.010484,-1.09156 3.161468,3.9564 -6.349659,3.62219 -8.821153,3.57456 -12.264536,-0.23633 z m 39.541759,-38.6308 c 6.444285,-3.43297 6.723617,-3.77375 4.195154,-5.11809 -1.489857,-0.79212 -11.052819,-5.47347 -21.251026,-10.403 -15.973908,-7.72136 -18.787918,-8.67586 -20.316221,-6.89129 -2.142123,2.50133 -2.321064,8.30859 -0.327735,10.63617 1.502196,1.75409 27.422653,15.22723 29.57334,15.37185 0.672377,0.0453 4.329297,-1.57282 8.126488,-3.59564 z m 35.124878,30.41598 -22.70511,-11.21512 -11.967914,5.94594 c -12.599618,6.2598 -16.234182,7.21391 -15.490735,4.0665 0.247569,-1.0481 17.384706,-10.26152 38.082529,-20.47426 20.69782,-10.21276 38.36095,-19.41936 39.2514,-20.45912 0.96597,-1.12795 1.48459,-3.78432 1.2858,-6.58569 -0.23884,-3.36552 0.12708,-4.6952 1.29209,-4.6952 2.3311,0 2.82224,10.93736 0.64326,14.32499 -0.917,1.42567 -7.28698,5.30302 -14.15549,8.61636 -6.86852,3.31333 -12.4863,6.36724 -12.48397,6.78648 0.002,0.41924 5.48673,3.4101 12.18756,6.64637 6.70084,3.23626 13.03662,6.94424 14.07952,8.23993 2.82938,3.51521 2.49417,12.75738 -0.6116,16.86255 -1.37928,1.82311 -3.45153,3.27889 -4.60501,3.23506 -1.15347,-0.0437 -12.31452,-5.12648 -24.80233,-11.29479 z m 26.92509,4.82016 c 1.28092,-1.31783 1.80356,-3.48645 1.56151,-6.47914 -0.34777,-4.29974 -1.00966,-4.82458 -14.99152,-11.88781 l -14.62768,-7.38945 -7.40317,3.32547 c -4.07174,1.82901 -7.08938,3.76696 -6.70585,4.30657 0.60936,0.85737 38.04814,19.75738 39.63581,20.00913 0.33305,0.0529 1.47195,-0.79533 2.5309,-1.88477 z m -82.776045,-3.35496 c 0,-1.52967 0.71064,-2.31777 1.819127,-2.01741 1.000521,0.27109 1.819129,1.17893 1.819129,2.01741 0,0.83848 -0.818608,1.74632 -1.819129,2.01741 -1.108487,0.30035 -1.819127,-0.48774 -1.819127,-2.01741 z m 24.028184,-56.55863 c -8.883425,-6.22839 -15.844172,-22.58591 -17.162415,-40.33109 -0.704283,-9.4805 -0.697445,-9.51142 1.902246,-8.60137 2.421755,0.84776 2.625877,0.45353 2.843197,-5.4912 0.402024,-10.997241 1.40107,-16.313798 3.065565,-16.313798 0.86691,0 1.576199,0.988553 1.576199,2.196785 0,5.010031 2.163624,3.406917 5.544751,-4.108321 3.640783,-8.092372 15.768268,-27.05404 17.303198,-27.05404 0.45861,0 1.14131,3.944654 1.51712,8.765898 0.79955,10.257186 2.99589,19.42064 5.93777,24.77319 2.07446,3.774336 2.11102,3.781726 3.77423,0.762252 1.67385,-3.038787 1.68504,-3.038876 3.33766,-0.0265 1.93344,3.524294 4.84301,16.528854 4.84301,21.646254 0,3.8254 1.04712,4.50051 2.9116,1.87723 4.0885,-5.75242 1.28375,11.247 -3.96769,24.04798 -3.78365,9.22309 -8.56459,14.78628 -16.22801,18.8832 -7.28729,3.89585 -10.446804,3.70729 -17.198431,-1.02647 z m 14.188741,-2.22365 c 4.76332,-1.86115 9.1763,-10.0039 10.1914,-18.80497 l 0.64597,-5.6007 -4.4818,1.00833 c -4.30973,0.96963 -4.48182,0.85264 -4.48182,-3.04673 0,-4.44535 -2.1335,-12.23712 -4.58585,-16.74794 -1.45913,-2.68392 -1.69707,-2.32013 -3.46964,5.30473 -1.046704,4.50244 -2.884654,10.12574 -4.084344,12.49623 -2.078188,4.10633 -2.278092,4.18667 -4.230729,1.70039 -1.980863,-2.52223 -2.049274,-2.38477 -2.043434,4.10583 0.0099,10.95418 1.806383,17.71013 5.169368,19.43974 3.934415,2.02349 6.480259,2.05598 11.370879,0.14513 z"
       style="fill:#db573a;stroke-width:1.28524256" />
    <path
       inkscape:connector-curvature="0"
       id="path4640"
       d="m 49.648403,226.485 c -3.465426,-3.83529 -3.915008,-12.11842 -0.888846,-16.37616 1.081359,-1.52144 7.42002,-5.43917 14.085913,-8.70606 6.665893,-3.26688 12.119806,-6.31044 12.119806,-6.76348 0,-0.45302 -5.48538,-3.48066 -12.189733,-6.72806 -6.704353,-3.24743 -13.043014,-7.26736 -14.085913,-8.9332 -2.917981,-4.66094 -2.455609,-12.52212 0.958773,-16.30091 1.570224,-1.73782 3.504884,-3.15966 4.299244,-3.15966 0.79436,0 11.862813,5.10598 24.596563,11.34661 l 23.15228,11.34659 23.00011,-11.34659 c 12.65007,-6.24063 23.70118,-11.34661 24.55801,-11.34661 0.85685,0 1.55789,1.02904 1.55789,2.28676 0,1.25771 -0.65484,2.28675 -1.45521,2.28675 -2.81264,0 -97.628671,47.41522 -98.449474,49.23223 -1.513993,3.3515 -0.893974,8.5689 1.206235,10.15034 1.488182,1.12059 3.353787,0.92141 6.63742,-0.70862 9.22388,-4.57881 12.010484,-1.09156 3.161468,3.9564 -6.349659,3.62219 -8.821153,3.57456 -12.264536,-0.23633 z m 39.541759,-38.6308 c 6.444285,-3.43297 6.723617,-3.77375 4.195154,-5.11809 -1.489857,-0.79212 -11.052819,-5.47347 -21.251026,-10.403 -15.973908,-7.72136 -18.787918,-8.67586 -20.316221,-6.89129 -2.142123,2.50133 -2.321064,8.30859 -0.327735,10.63617 1.502196,1.75409 27.422653,15.22723 29.57334,15.37185 0.672377,0.0453 4.329297,-1.57282 8.126488,-3.59564 z m 35.124878,30.41598 -22.70511,-11.21512 -11.967914,5.94594 c -12.599618,6.2598 -16.234182,7.21391 -15.490735,4.0665 0.247569,-1.0481 17.384706,-10.26152 38.082529,-20.47426 20.69782,-10.21276 38.36095,-19.41936 39.2514,-20.45912 0.96597,-1.12795 1.48459,-3.78432 1.2858,-6.58569 -0.23884,-3.36552 0.12708,-4.6952 1.29209,-4.6952 2.3311,0 2.82224,10.93736 0.64326,14.32499 -0.917,1.42567 -7.28698,5.30302 -14.15549,8.61636 -6.86852,3.31333 -12.4863,6.36724 -12.48397,6.78648 0.002,0.41924 5.48673,3.4101 12.18756,6.64637 6.70084,3.23626 13.03662,6.94424 14.07952,8.23993 2.82938,3.51521 2.49417,12.75738 -0.6116,16.86255 -1.37928,1.82311 -3.45153,3.27889 -4.60501,3.23506 -1.15347,-0.0437 -12.31452,-5.12648 -24.80233,-11.29479 z m 26.92509,4.82016 c 1.28092,-1.31783 1.80356,-3.48645 1.56151,-6.47914 -0.34777,-4.29974 -1.00966,-4.82458 -14.99152,-11.88781 l -14.62768,-7.38945 -7.40317,3.32547 c -4.07174,1.82901 -7.08938,3.76696 -6.70585,4.30657 0.60936,0.85737 38.04814,19.75738 39.63581,20.00913 0.33305,0.0529 1.47195,-0.79533 2.5309,-1.88477 z m -82.776045,-3.35496 c 0,-1.52967 0.71064,-2.31777 1.819127,-2.01741 1.000521,0.27109 1.819129,1.17893 1.819129,2.01741 0,0.83848 -0.818608,1.74632 -1.819129,2.01741 -1.108487,0.30035 -1.819127,-0.48774 -1.819127,-2.01741 z m 24.028184,-56.55863 c -8.883425,-6.22839 -15.844172,-22.58591 -17.162415,-40.33109 -0.704283,-9.4805 -0.697445,-9.51142 1.902246,-8.60137 2.421755,0.84776 2.625877,0.45353 2.843197,-5.4912 0.402024,-10.997241 1.40107,-16.313798 3.065565,-16.313798 0.86691,0 1.576199,0.988553 1.576199,2.196785 0,5.010031 2.163624,3.406917 5.544751,-4.108321 3.640783,-8.092372 15.768268,-27.05404 17.303198,-27.05404 0.45861,0 1.14131,3.944654 1.51712,8.765898 0.79955,10.257186 2.99589,19.42064 5.93777,24.77319 2.07446,3.774336 2.11102,3.781726 3.77423,0.762252 1.67385,-3.038787 1.68504,-3.038876 3.33766,-0.0265 1.93344,3.524294 4.84301,16.528854 4.84301,21.646254 0,3.8254 1.04712,4.50051 2.9116,1.87723 4.0885,-5.75242 1.28375,11.247 -3.96769,24.04798 -3.78365,9.22309 -8.56459,14.78628 -16.22801,18.8832 -7.28729,3.89585 -10.446804,3.70729 -17.198431,-1.02647 z m 14.188741,-2.22365 c 4.76332,-1.86115 9.1763,-10.0039 10.1914,-18.80497 l 0.64597,-5.6007 -4.4818,1.00833 c -4.30973,0.96963 -4.48182,0.85264 -4.48182,-3.04673 0,-4.44535 -2.1335,-12.23712 -4.58585,-16.74794 -1.45913,-2.68392 -1.69707,-2.32013 -3.46964,5.30473 -1.046704,4.50244 -2.884654,10.12574 -4.084344,12.49623 -2.078188,4.10633 -2.278092,4.18667 -4.230729,1.70039 -1.980863,-2.52223 -2.049274,-2.38477 -2.043434,4.10583 0.0099,10.95418 1.806383,17.71013 5.169368,19.43974 3.934415,2.02349 6.480259,2.05598 11.370879,0.14513 z M 89.877452,127.25506 c 0.958007,-1.3479 1.523371,-0.79954 2.357249,2.28633 0.603338,2.23273 1.342931,4.05951 1.64354,4.05951 1.372805,0 5.062865,-13.01856 5.215385,-18.39992 0.10071,-3.55337 0.70551,-5.99214 1.486004,-5.99214 1.99626,0 7.8145,10.65267 9.13671,16.7285 0.64355,2.95724 1.38182,6.30866 1.64059,7.44759 0.38138,1.67852 0.98735,1.59432 3.1989,-0.44448 1.50061,-1.3834 3.20221,-2.10326 3.78133,-1.59969 1.39784,1.21551 1.34423,11.65516 -0.087,16.95185 l -1.13999,4.21867 2.34063,-2.97605 c 2.28288,-2.90268 7.52401,-15.96698 7.52401,-18.75485 0,-0.76856 -0.97517,-1.75618 -2.16706,-2.19471 -1.83641,-0.67568 -2.16706,-2.07945 -2.16706,-9.20015 0,-9.87721 -0.74064,-13.31513 -2.64679,-12.28598 -3.79706,2.05006 -13.54319,-17.178632 -13.6122,-26.85628 -0.0149,-2.096193 -0.43729,-4.721413 -0.93854,-5.833824 -1.18319,-2.625809 -7.322814,7.238751 -13.356514,21.45999 -2.401273,5.659724 -4.700453,10.290404 -5.10929,10.290404 -0.408838,0 -1.328447,-0.82323 -2.043578,-1.8294 -1.011296,-1.42287 -1.300238,0.6098 -1.300238,9.14702 0,9.96009 -0.200654,10.97643 -2.167064,10.97643 -3.722615,0 -2.561274,8.13606 3.046507,21.34305 l 2.912918,6.86027 0.595644,-11.81448 c 0.327605,-6.49797 1.162768,-12.61242 1.855917,-13.58766 z"
       style="fill:#545555;stroke-width:1.28524256" />
    <path
       inkscape:connector-curvature="0"
       id="path4638"
       d="m 51.474167,227.34639 c -5.266823,-3.1158 -6.302814,-10.80311 -2.228449,-16.53566 1.353017,-1.90366 7.910007,-6.07877 14.627679,-9.31404 6.696476,-3.22508 12.17541,-6.30569 12.17541,-6.8458 0,-0.54012 -6.034044,-3.91778 -13.408987,-7.5059 -13.852983,-6.73988 -15.846371,-8.88188 -15.846371,-17.02772 0,-4.37856 3.8742,-9.0753 7.485949,-9.0753 1.733503,0 12.826159,4.79599 24.650348,10.65774 11.82419,5.86176 22.000894,10.66395 22.614894,10.67152 0.61401,0.008 10.8386,-4.78839 22.72134,-10.65773 11.88273,-5.86934 22.71681,-10.67153 24.07575,-10.67153 3.20712,0 3.23885,3.02372 0.0328,3.12931 -1.34087,0.0442 -23.64808,10.56599 -49.571584,23.3818 -41.374163,20.4542 -47.331354,23.79359 -48.751713,27.32858 -1.501448,3.73681 -1.443784,4.27232 0.799982,7.42925 2.21066,3.11034 2.814127,3.25271 7.035738,1.65994 2.539722,-0.95821 5.537489,-2.24099 6.661706,-2.85064 1.452298,-0.78756 1.904582,-0.51984 1.562334,0.92476 -0.264931,1.11826 -2.93021,3.20419 -5.922843,4.63539 -4.588105,2.19425 -5.954261,2.29867 -8.714013,0.66603 z m 44.437998,-43.39435 c -1.445378,-1.79939 -38.986442,-19.86106 -41.281092,-19.86106 -1.146254,0 -2.996776,1.41893 -4.112273,3.1532 -1.834558,2.85216 -1.87645,3.52562 -0.438818,7.05453 1.267261,3.11071 4.553805,5.35449 16.217039,11.07167 l 14.627679,7.17032 7.944508,-3.73315 c 4.36948,-2.05323 7.538808,-4.23821 7.042957,-4.85551 z m 27.322795,33.18758 -21.6181,-10.76234 -13.054914,6.32324 c -13.899473,6.73232 -14.680202,6.99656 -14.680202,4.96876 0,-0.71711 17.187522,-9.73455 38.194496,-20.03875 21.00697,-10.30419 39.08205,-19.8148 40.16683,-21.1347 1.48192,-1.80311 1.80648,-3.64366 1.30532,-7.40232 -0.40183,-3.01367 -0.22492,-5.00253 0.44496,-5.00253 1.69312,0 2.67286,7.54778 1.56143,12.02899 -0.84675,3.41409 -2.94184,4.95126 -14.77231,10.83857 -7.58209,3.77315 -13.79059,7.204 -13.79665,7.62412 -0.006,0.42011 5.47436,3.43788 12.17872,6.70614 6.70435,3.26828 13.28681,7.3318 14.62768,9.03005 2.83844,3.595 3.15103,9.59246 0.75121,14.41308 -2.67844,5.38028 -7.69365,4.16409 -31.30847,-7.59231 z m 29.12544,5.53587 c 2.23684,-3.14717 2.15957,-7.22372 -0.19348,-10.20881 -1.0429,-1.32301 -8.29885,-5.48862 -16.12432,-9.25692 l -14.22814,-6.85145 -6.90073,3.51562 c -3.79541,1.93357 -6.83037,4.10629 -6.74436,4.82825 0.19209,1.61249 36.84468,20.12375 40.12779,20.26639 1.29831,0.0564 3.12677,-0.97546 4.06324,-2.29308 z m -83.284379,-2.01812 c -0.329719,-0.75061 0.129095,-1.75812 1.019585,-2.2389 0.983478,-0.53099 1.619074,0.005 1.619074,1.36475 0,2.46572 -1.693151,3.02664 -2.638659,0.87415 z M 92.84355,163.22293 c -8.708207,-6.35924 -15.873857,-23.51429 -16.609251,-39.76367 -0.293082,-6.47599 -0.03778,-9.67691 0.771813,-9.67691 0.665368,0 1.209759,0.68603 1.209759,1.5245 0,0.83848 0.422073,1.52451 0.937941,1.52451 0.515866,0 1.184646,-4.85131 1.486175,-10.78069 0.623629,-12.263262 2.285894,-16.428615 4.009992,-10.048366 0.603338,2.232729 1.317538,4.059506 1.587111,4.059506 0.269572,0 2.255353,-4.088486 4.412845,-9.085528 C 94.96892,80.972938 105.17098,64.99822 107.24052,64.99822 c 0.80052,0 1.31424,2.275475 1.31424,5.821317 0,3.201724 0.74342,9.343434 1.65202,13.648243 2.29139,10.856139 9.1833,21.98715 9.1833,14.831778 0,-4.422739 2.29545,-2.217203 4.36331,4.192392 1.14966,3.56353 2.101,9.73777 2.11409,13.72053 0.0223,6.77549 1.19234,9.2234 2.73262,5.71689 1.63124,-3.71355 2.91557,-1.26296 2.19719,4.19239 -1.04107,7.90583 -5.46744,19.9589 -9.58615,26.10326 -7.28259,10.86427 -20.70379,15.59446 -28.36759,9.99791 z m 16.13307,-2.77446 c 2.51789,-1.4802 4.31863,-4.19839 5.97977,-9.0264 2.56806,-7.46385 3.48704,-15.69646 1.70467,-15.27085 -0.60706,0.14495 -2.40495,0.72305 -3.99532,1.28465 -2.68288,0.9474 -2.94384,0.5983 -3.61569,-4.83707 -0.71619,-5.79382 -5.19984,-17.29392 -6.74097,-17.28983 -0.4385,0.001 -1.64946,3.94581 -2.691024,8.7659 -1.04157,4.82008 -2.61848,10.08053 -3.50425,11.68988 -1.587946,2.88514 -1.642847,2.88514 -3.921191,0 l -2.310698,-2.9261 0.424279,11.98036 c 0.365359,10.31662 0.775762,12.3808 2.955269,14.86392 3.048141,3.47274 10.493135,3.83542 15.715155,0.76554 z M 88.509423,142.06599 c 0,-12.7011 1.816329,-18.0644 3.725278,-11.00009 0.603338,2.23273 1.375272,4.05951 1.71541,4.05951 1.310695,0 5.915755,-16.25273 5.925815,-20.91409 0.007,-3.32515 0.447164,-4.65297 1.364994,-4.11936 2.51678,1.4632 7.45793,12.03332 8.71502,18.64321 1.26424,6.64738 1.65208,6.89778 6.40906,4.13783 2.83348,-1.64395 3.7646,5.98535 1.71108,14.02003 -0.91742,3.58954 -1.32586,6.52642 -0.90766,6.52642 2.17798,0 8.26681,-13.3159 10.28214,-22.48643 0.63831,-2.90457 0.35194,-3.43013 -1.86898,-3.43013 -2.47365,0 -2.59562,-0.41176 -2.14496,-7.2414 0.57113,-8.65525 -1.10495,-15.94864 -3.38255,-14.71895 -4.41664,2.38457 -12.18125,-13.217557 -13.32197,-26.769019 -0.35544,-4.222507 -1.02445,-7.677285 -1.48668,-7.677285 -1.20431,0 -9.203601,14.432053 -13.774822,24.852073 -3.336379,7.605221 -4.255679,8.751741 -6.407899,7.991731 -2.450856,-0.86547 -2.512701,-0.62141 -2.512701,9.916 0,10.10954 -0.139163,10.74116 -2.167064,9.83559 -2.669773,-1.19221 -2.779589,0.98529 -0.506783,10.04878 1.908137,7.60926 6.732722,19.67897 7.866298,19.6792 0.421835,7e-5 0.766974,-5.10905 0.766974,-11.35362 z"
       style="fill:#3e3e40;stroke-width:1.28524256" />
    <path
       inkscape:connector-curvature="0"
       id="path4636"
       d="m 50.593481,226.6131 c -0.379603,-0.86418 0.05533,-1.11975 1.019585,-0.59914 1.877129,1.01347 2.220576,2.10619 0.661989,2.10619 -0.560772,0 -1.31748,-0.67817 -1.681574,-1.50705 z m 85.049579,-3.73874 c 0,-0.36975 0.48759,-1.09627 1.08353,-1.61448 0.59594,-0.51821 1.08353,-0.21568 1.08353,0.67228 0,0.88796 -0.48759,1.61448 -1.08353,1.61448 -0.59594,0 -1.08353,-0.30252 -1.08353,-0.67228 z m -66.095443,-2.28675 c 0,-0.88797 0.487589,-1.61448 1.083531,-1.61448 0.595943,0 1.083532,0.30252 1.083532,0.67227 0,0.36976 -0.487589,1.09627 -1.083532,1.61448 -0.595942,0.51821 -1.083531,0.21569 -1.083531,-0.67227 z m 62.844843,0.76225 c 0,-0.36975 0.48759,-1.09627 1.08354,-1.61448 0.59594,-0.51821 1.08353,-0.21569 1.08353,0.67227 0,0.88797 -0.48759,1.61449 -1.08353,1.61449 -0.59595,0 -1.08354,-0.30253 -1.08354,-0.67228 z m -85.599011,-3.04901 c 0,-2.67784 0.650179,-3.07212 1.579026,-0.95757 0.342863,0.78055 0.127844,1.85008 -0.477819,2.37673 -0.605664,0.52666 -1.101207,-0.11196 -1.101207,-1.41916 z m 107.269651,0 c 0,-1.20823 0.48759,-2.62077 1.08353,-3.13898 0.59594,-0.51821 1.08353,0.47034 1.08353,2.19678 0,1.72644 -0.48759,3.13898 -1.08353,3.13898 -0.59594,0 -1.08353,-0.98855 -1.08353,-2.19678 z m -79.097824,-0.85223 c 0,-0.83847 0.215018,-1.5245 0.477819,-1.5245 0.2628,0 0.779165,0.68603 1.147478,1.5245 0.368313,0.83848 0.153294,1.52451 -0.477819,1.52451 -0.631113,0 -1.147478,-0.68603 -1.147478,-1.52451 z m 3.250595,-1.5245 c 0,-0.83848 0.215018,-1.5245 0.477819,-1.5245 0.262801,0 0.779165,0.68602 1.147478,1.5245 0.368314,0.83848 0.153294,1.5245 -0.477819,1.5245 -0.631112,0 -1.147478,-0.68602 -1.147478,-1.5245 z m 39.007149,-2.19678 c 0,-0.36975 0.48759,-1.09627 1.08353,-1.61448 0.59594,-0.51821 1.08353,-0.21569 1.08353,0.67227 0,0.88797 -0.48759,1.61449 -1.08353,1.61449 -0.59594,0 -1.08353,-0.30253 -1.08353,-0.67228 z m -68.262507,-3.13898 c 0.741882,-1.25772 1.592671,-2.28676 1.890643,-2.28676 0.297971,0 -0.06523,1.02904 -0.807111,2.28676 -0.741882,1.25771 -1.592672,2.28675 -1.890643,2.28675 -0.297971,0 0.06523,-1.02904 0.807111,-2.28675 z m 37.923612,0.76225 c 0,-0.83848 0.215018,-1.52451 0.477819,-1.52451 0.262801,0 0.779166,0.68603 1.147479,1.52451 0.368313,0.83847 0.153293,1.5245 -0.477819,1.5245 -0.631113,0 -1.147479,-0.68603 -1.147479,-1.5245 z m 27.088295,0.85223 c 0,-0.36976 0.48759,-1.09628 1.08354,-1.61448 0.59594,-0.51821 1.08353,-0.21569 1.08353,0.67227 0,0.88796 -0.48759,1.61448 -1.08353,1.61448 -0.59595,0 -1.08354,-0.30252 -1.08354,-0.67227 z m 38.86893,-1.99561 c -1.34777,-2.41796 -1.30945,-2.47188 0.4091,-0.57559 1.0429,1.15077 1.89618,2.35132 1.89618,2.66788 0,1.25473 -0.88978,0.44715 -2.30528,-2.09229 z M 90.13472,209.8261 c 0,-0.83847 0.215019,-1.5245 0.477819,-1.5245 0.262801,0 0.779166,0.68603 1.147479,1.5245 0.368313,0.83848 0.153294,1.52451 -0.477819,1.52451 -0.631113,0 -1.147479,-0.68603 -1.147479,-1.52451 z m -37.381846,-1.5245 c -0.368313,-0.83848 -0.153294,-1.5245 0.477819,-1.5245 0.631113,0 1.147479,0.68602 1.147479,1.5245 0,0.83848 -0.215018,1.5245 -0.477819,1.5245 -0.262801,0 -0.779166,-0.68602 -1.147479,-1.5245 z m 40.632442,0 c 0,-0.83848 0.215018,-1.5245 0.477819,-1.5245 0.262801,0 0.779165,0.68602 1.147478,1.5245 0.368313,0.83848 0.153294,1.5245 -0.477819,1.5245 -0.631113,0 -1.147478,-0.68602 -1.147478,-1.5245 z m 55.260124,0 c 0,-0.83848 0.48759,-1.5245 1.08353,-1.5245 0.59594,0 1.08353,0.68602 1.08353,1.5245 0,0.83848 -0.48759,1.5245 -1.08353,1.5245 -0.59594,0 -1.08353,-0.68602 -1.08353,-1.5245 z m -93.183736,-1.5245 c 0,-0.83848 0.487589,-1.52451 1.083531,-1.52451 0.595943,0 1.083532,0.68603 1.083532,1.52451 0,0.83847 -0.487589,1.5245 -1.083532,1.5245 -0.595942,0 -1.083531,-0.68603 -1.083531,-1.5245 z m 41.174202,0 c 0,-0.83848 0.21502,-1.52451 0.47782,-1.52451 0.2628,0 0.77917,0.68603 1.14748,1.52451 0.36832,0.83847 0.1533,1.5245 -0.47782,1.5245 -0.63111,0 -1.14748,-0.68603 -1.14748,-1.5245 z m 48.758934,0.85222 c 0,-0.36975 0.48759,-1.09627 1.08354,-1.61448 0.59594,-0.51821 1.08353,-0.21568 1.08353,0.67228 0,0.88796 -0.48759,1.61448 -1.08353,1.61448 -0.59595,0 -1.08354,-0.30252 -1.08354,-0.67228 z m -86.682541,-2.37673 c 0,-0.83848 0.487589,-1.5245 1.083532,-1.5245 0.595942,0 1.083532,0.68602 1.083532,1.5245 0,0.83848 -0.48759,1.52451 -1.083532,1.52451 -0.595943,0 -1.083532,-0.68603 -1.083532,-1.52451 z m 41.174207,0.0479 c 0,-0.81215 0.731384,-1.08177 1.625304,-0.59914 0.89391,0.48264 1.6253,1.14712 1.6253,1.47666 0,0.32949 -0.73139,0.59912 -1.6253,0.59912 -0.89392,0 -1.625304,-0.66451 -1.625304,-1.47667 z m -37.923612,-1.57237 c 0,-0.83848 0.215018,-1.52451 0.477819,-1.52451 0.262801,0 0.779166,0.68603 1.147479,1.52451 0.368313,0.83847 0.153294,1.5245 -0.477819,1.5245 -0.631113,0 -1.147479,-0.68603 -1.147479,-1.5245 z m 3.250596,-1.52451 c 0,-0.83847 0.215018,-1.5245 0.477819,-1.5245 0.262801,0 0.779165,0.68603 1.147478,1.5245 0.368313,0.83848 0.153294,1.52451 -0.477819,1.52451 -0.631113,0 -1.147478,-0.68603 -1.147478,-1.52451 z m 71.5131,0.0899 c 0,-0.88793 0.48759,-1.61445 1.08353,-1.61445 0.59594,0 1.08353,0.30252 1.08353,0.67227 0,0.36976 -0.48759,1.09628 -1.08353,1.61448 -0.59594,0.51821 -1.08353,0.21569 -1.08353,-0.67227 z m -3.25059,-1.61445 c 0,-0.83848 0.48758,-1.52451 1.08353,-1.52451 0.59594,0 1.08353,0.68603 1.08353,1.52451 0,0.83848 -0.48759,1.5245 -1.08353,1.5245 -0.59595,0 -1.08353,-0.68602 -1.08353,-1.5245 z m -62.303086,-1.52451 c -0.368313,-0.83847 -0.153293,-1.5245 0.477819,-1.5245 0.631113,0 1.147479,0.68603 1.147479,1.5245 0,0.83848 -0.215018,1.52451 -0.477819,1.52451 -0.262801,0 -0.779166,-0.68603 -1.147479,-1.52451 z m 59.052486,0 c 0,-0.83847 0.48759,-1.5245 1.08353,-1.5245 0.59594,0 1.08353,0.68603 1.08353,1.5245 0,0.83848 -0.48759,1.52451 -1.08353,1.52451 -0.59594,0 -1.08353,-0.68603 -1.08353,-1.52451 z m -56.343656,-1.5245 c 0,-0.83848 0.487589,-1.5245 1.083532,-1.5245 0.595942,0 1.083531,0.68602 1.083531,1.5245 0,0.83848 -0.487589,1.5245 -1.083531,1.5245 -0.595943,0 -1.083532,-0.68602 -1.083532,-1.5245 z m 53.093056,0.85223 c 0,-0.36975 0.48759,-1.09627 1.08354,-1.61448 0.59594,-0.51821 1.08353,-0.21569 1.08353,0.67227 0,0.88797 -0.48759,1.61448 -1.08353,1.61448 -0.59595,0 -1.08354,-0.30252 -1.08354,-0.67227 z m -43.34127,-5.42574 c 0,-0.83848 0.215018,-1.52451 0.477819,-1.52451 0.262801,0 0.779165,0.68603 1.147478,1.52451 0.368313,0.83848 0.153294,1.5245 -0.477819,1.5245 -0.631113,0 -1.147478,-0.68602 -1.147478,-1.5245 z m -9.751786,-0.67228 c 0,-0.36975 0.487589,-1.09627 1.083532,-1.61448 0.595942,-0.51821 1.083531,-0.21568 1.083531,0.67228 0,0.88796 -0.487589,1.61448 -1.083531,1.61448 -0.595943,0 -1.083532,-0.30252 -1.083532,-0.67228 z m -3.250596,-1.5245 c 0,-0.36975 0.48759,-1.09627 1.083532,-1.61448 0.595943,-0.51821 1.083532,-0.21569 1.083532,0.67227 0,0.88797 -0.487589,1.61448 -1.083532,1.61448 -0.595942,0 -1.083532,-0.30252 -1.083532,-0.67227 z m 59.594252,-0.85223 c 0,-0.83848 0.21502,-1.5245 0.47782,-1.5245 0.2628,0 0.77916,0.68602 1.14748,1.5245 0.36831,0.83848 0.1533,1.5245 -0.47782,1.5245 -0.63111,0 -1.14748,-0.68602 -1.14748,-1.5245 z m -62.844847,-0.67227 c 0,-0.36976 0.487589,-1.09628 1.083532,-1.61449 0.595942,-0.5182 1.083532,-0.21568 1.083532,0.67228 0,0.88796 -0.48759,1.61448 -1.083532,1.61448 -0.595943,0 -1.083532,-0.30252 -1.083532,-0.67227 z m 25.462997,-0.85221 c -0.368313,-0.83848 -0.153294,-1.52451 0.477819,-1.52451 0.631113,0 1.147478,0.68603 1.147478,1.52451 0,0.83847 -0.215018,1.5245 -0.477819,1.5245 -0.262801,0 -0.779165,-0.68603 -1.147478,-1.5245 z m 40.63245,0 c 0,-0.83848 0.21501,-1.52451 0.47781,-1.52451 0.2628,0 0.77917,0.68603 1.14748,1.52451 0.36832,0.83847 0.1533,1.5245 -0.47781,1.5245 -0.63112,0 -1.14748,-0.68603 -1.14748,-1.5245 z m -32.50596,-4.57352 c -1.400674,-1.27357 -1.372074,-1.48104 0.20694,-1.50116 1.00773,-0.0122 2.13358,0.66269 2.50189,1.50116 0.84752,1.92942 -0.58687,1.92942 -2.70883,0 z m -48.758932,-2.19677 c 0,-0.36976 0.48759,-1.09628 1.083532,-1.61449 0.595943,-0.5182 1.083532,-0.21568 1.083532,0.67228 0,0.88796 -0.487589,1.61448 -1.083532,1.61448 -0.595942,0 -1.083532,-0.30252 -1.083532,-0.67227 z m 41.174208,-0.76226 c 0,-0.88796 0.487589,-1.61448 1.083531,-1.61448 0.595943,0 1.083532,0.30253 1.083532,0.67228 0,0.36975 -0.487589,1.09627 -1.083532,1.61448 -0.595942,0.51821 -1.083531,0.21569 -1.083531,-0.67228 z m -44.563013,-2.75786 c -1.347774,-2.41795 -1.309449,-2.47187 0.409093,-0.57559 1.804891,1.99157 2.378871,3.24348 1.487088,3.24348 -0.225002,0 -1.078283,-1.20055 -1.896181,-2.66789 z M 90.13472,179.426 c 0,-0.88796 0.48759,-1.61448 1.083532,-1.61448 0.595943,0 1.083532,0.30252 1.083532,0.67227 0,0.36976 -0.487589,1.09628 -1.083532,1.61448 -0.595942,0.51821 -1.083532,0.21569 -1.083532,-0.67227 z m -3.250595,-1.61448 c 0,-0.83848 0.487589,-1.52451 1.083532,-1.52451 0.595942,0 1.083532,0.68603 1.083532,1.52451 0,0.83848 -0.48759,1.5245 -1.083532,1.5245 -0.595943,0 -1.083532,-0.68602 -1.083532,-1.5245 z m 27.088295,0 c 0,-0.83848 0.48759,-1.52451 1.08354,-1.52451 0.59594,0 1.08353,0.68603 1.08353,1.52451 0,0.83848 -0.48759,1.5245 -1.08353,1.5245 -0.59595,0 -1.08354,-0.68602 -1.08354,-1.5245 z m -30.33889,-1.52451 c 0,-0.83847 0.487589,-1.5245 1.083531,-1.5245 0.595943,0 1.083532,0.68603 1.083532,1.5245 0,0.83848 -0.487589,1.52451 -1.083532,1.52451 -0.595942,0 -1.083531,-0.68603 -1.083531,-1.52451 z m 33.58949,0 c 0,-0.83847 0.48759,-1.5245 1.08353,-1.5245 0.59594,0 1.08353,0.68603 1.08353,1.5245 0,0.83848 -0.48759,1.52451 -1.08353,1.52451 -0.59594,0 -1.08353,-0.68603 -1.08353,-1.52451 z m -36.840086,-0.67227 c 0,-0.36975 0.48759,-1.09627 1.083532,-1.61448 0.595943,-0.51821 1.083532,-0.21569 1.083532,0.67227 0,0.88797 -0.487589,1.61448 -1.083532,1.61448 -0.595942,0 -1.083532,-0.30252 -1.083532,-0.67227 z m 40.090676,-0.85223 c 0,-0.83848 0.48759,-1.5245 1.08354,-1.5245 0.59594,0 1.08353,0.68602 1.08353,1.5245 0,0.83848 -0.48759,1.5245 -1.08353,1.5245 -0.59595,0 -1.08354,-0.68602 -1.08354,-1.5245 z m 3.2506,-1.5245 c 0,-0.83848 0.48759,-1.52451 1.08353,-1.52451 0.59594,0 1.08353,0.68603 1.08353,1.52451 0,0.83847 -0.48759,1.5245 -1.08353,1.5245 -0.59594,0 -1.08353,-0.68603 -1.08353,-1.5245 z m 30.91448,-0.44688 c -0.46381,-1.5035 -0.53927,-3.1614 -0.16768,-3.68421 1.10031,-1.54813 1.98729,0.62648 1.48086,3.63064 -0.44896,2.66323 -0.50738,2.66561 -1.31318,0.0535 z M 46.793449,170.86127 c 0,-1.3072 0.48759,-1.95273 1.083532,-1.43452 0.595943,0.51821 1.083532,1.58774 1.083532,2.37673 0,0.78899 -0.487589,1.43453 -1.083532,1.43453 -0.595942,0 -1.083532,-1.06953 -1.083532,-2.37674 z m 28.171827,0.94221 c 0,-0.88796 0.487589,-1.61448 1.083531,-1.61448 0.595943,0 1.083532,0.30252 1.083532,0.67227 0,0.36976 -0.487589,1.09628 -1.083532,1.61448 -0.595942,0.51821 -1.083531,0.21569 -1.083531,-0.67227 z m 52.009524,-0.09 c 0,-0.83847 0.21502,-1.5245 0.47782,-1.5245 0.2628,0 0.77917,0.68603 1.14748,1.5245 0.36832,0.83848 0.1533,1.52451 -0.47781,1.52451 -0.63112,0 -1.14749,-0.68603 -1.14749,-1.52451 z m -55.26012,-1.43453 c 0,-0.88796 0.48759,-1.61448 1.083532,-1.61448 0.595942,0 1.083532,0.30253 1.083532,0.67228 0,0.36975 -0.48759,1.09627 -1.083532,1.61448 -0.595942,0.51821 -1.083532,0.21569 -1.083532,-0.67228 z m -3.250595,-1.61448 c 0,-0.83847 0.487589,-1.5245 1.083532,-1.5245 0.595942,0 1.083531,0.68603 1.083531,1.5245 0,0.83848 -0.487589,1.52451 -1.083531,1.52451 -0.595943,0 -1.083532,-0.68603 -1.083532,-1.52451 z m -3.250595,-1.5245 c 0,-0.83848 0.487589,-1.5245 1.083531,-1.5245 0.595943,0 1.083532,0.68602 1.083532,1.5245 0,0.83848 -0.487589,1.5245 -1.083532,1.5245 -0.595942,0 -1.083531,-0.68602 -1.083531,-1.5245 z m 70.97133,0 c -0.36831,-0.83848 -0.15329,-1.5245 0.47782,-1.5245 0.63111,0 1.14748,0.68602 1.14748,1.5245 0,0.83848 -0.21501,1.5245 -0.47781,1.5245 -0.2628,0 -0.77917,-0.68602 -1.14749,-1.5245 z m -74.221926,-0.67228 c 0,-0.36975 0.48759,-1.09627 1.083532,-1.61448 0.595943,-0.5182 1.083532,-0.21568 1.083532,0.67228 0,0.88796 -0.487589,1.61448 -1.083532,1.61448 -0.595942,0 -1.083532,-0.30252 -1.083532,-0.67228 z m 76.930756,-0.85222 c 0,-0.83848 0.48759,-1.52451 1.08354,-1.52451 0.59594,0 1.08353,0.68603 1.08353,1.52451 0,0.83847 -0.48759,1.5245 -1.08353,1.5245 -0.59595,0 -1.08354,-0.68603 -1.08354,-1.5245 z m -42.257464,-1.14338 c 1.5e-4,-0.62886 2.1943,-1.20916 4.875894,-1.28956 2.68159,-0.0804 4.87562,0.43411 4.87562,1.14337 0,0.70926 -2.19415,1.28957 -4.87589,1.28957 -2.681744,0 -4.875774,-0.51452 -4.875624,-1.14338 z m 45.508064,-0.38113 c 0,-0.83847 0.48759,-1.5245 1.08353,-1.5245 0.59594,0 1.08353,0.68603 1.08353,1.5245 0,0.83848 -0.48759,1.52451 -1.08353,1.52451 -0.59594,0 -1.08353,-0.68603 -1.08353,-1.52451 z M 51.140478,161.9385 c 0.705153,-0.99213 1.495655,-0.90834 2.315696,0.24543 0.937733,1.31937 0.673458,1.69119 -1.07063,1.50635 -1.525192,-0.16165 -1.950217,-0.75965 -1.245066,-1.75178 z m 4.321226,0.62796 c 0,-0.83848 0.487589,-1.52451 1.083531,-1.52451 0.595943,0 1.083532,0.68603 1.083532,1.52451 0,0.83848 -0.487589,1.5245 -1.083532,1.5245 -0.595942,0 -1.083531,-0.68602 -1.083531,-1.5245 z m 52.551296,0 c -0.36832,-0.83848 -0.1533,-1.52451 0.47781,-1.52451 0.63112,0 1.14749,0.68603 1.14749,1.52451 0,0.83848 -0.21502,1.5245 -0.47782,1.5245 -0.2628,0 -0.77917,-0.68602 -1.14748,-1.5245 z m 37.38184,0 c 0,-0.83848 0.48759,-1.52451 1.08354,-1.52451 0.59594,0 1.08353,0.68603 1.08353,1.52451 0,0.83848 -0.48759,1.5245 -1.08353,1.5245 -0.59595,0 -1.08354,-0.68602 -1.08354,-1.5245 z m -54.606744,-1.27042 c -0.306927,-0.69874 0.130438,-1.27043 0.971922,-1.27043 0.841484,0 1.278849,0.57169 0.971921,1.27043 -0.306926,0.69873 -0.744292,1.27042 -0.971921,1.27042 -0.227629,0 -0.664995,-0.57169 -0.971922,-1.27042 z m 28.601984,-7.11435 c 1.39965,-2.0962 2.78861,-3.81126 3.08658,-3.81126 0.29797,0 -0.60339,1.71506 -2.00305,3.81126 -1.39965,2.09619 -2.78861,3.81126 -3.08658,3.81126 -0.29797,0 0.6034,-1.71507 2.00305,-3.81126 z m -4.24713,-2.28676 c 1.57959,-4.66655 2.08007,-5.53142 2.08007,-3.59447 0,0.81797 -0.75828,2.81888 -1.68508,4.44647 -1.58886,2.79032 -1.61142,2.74167 -0.39499,-0.852 z m -25.880528,-2.28676 c -0.02208,-2.51543 0.202691,-3.72903 0.499495,-2.69689 0.296804,1.03214 0.314871,3.09022 0.04015,4.57351 -0.274719,1.48329 -0.517559,0.63882 -0.53964,-1.87662 z m 17.581238,-26.12518 c -1.23908,-3.58035 -1.8451,-6.15514 -1.34671,-5.72176 1.28577,1.11806 4.3397,9.72207 3.93628,11.08991 -0.18519,0.62787 -1.3505,-1.7878 -2.58957,-5.36815 z m -30.709311,3.38467 c -0.04705,-1.60708 0.209044,-2.50749 0.569092,-2.00092 0.360048,0.50658 0.398543,1.82147 0.08554,2.92197 -0.345891,1.21615 -0.602642,0.85491 -0.654634,-0.92105 z m 21.689547,2.15971 c -0.0393,-0.41924 0.61981,-3.84937 1.46481,-7.62252 0.845004,-3.77315 1.546994,-5.48821 1.559984,-3.81126 0.0206,2.65623 -2.835364,13.45172 -3.024794,11.43378 z m 32.009664,-5.33576 c -0.34302,-1.25772 -0.15139,-2.28676 0.42584,-2.28676 0.57724,0 1.04953,1.02904 1.04953,2.28676 0,1.25771 -0.19163,2.28675 -0.42584,2.28675 -0.23421,0 -0.70649,-1.02904 -1.04953,-2.28675 z m -4.73071,-6.86027 c 0,-3.77315 0.21131,-5.31671 0.46957,-3.43014 0.25827,1.88658 0.25827,4.9737 0,6.86027 -0.25826,1.88658 -0.46957,0.34302 -0.46957,-3.43013 z m -44.41001,-6.86027 c 0.0081,-4.19239 0.218562,-5.72651 0.467616,-3.40917 0.249055,2.31734 0.242399,5.74747 -0.01479,7.62252 -0.257189,1.87504 -0.46096,-0.021 -0.452826,-4.21335 z m 41.47573,-7.9379 c -0.58801,-2.172722 -0.46355,-2.347832 0.60656,-0.85341 0.74051,1.03413 1.07343,2.26426 0.73982,2.73363 -0.33361,0.46938 -0.93948,-0.37672 -1.34638,-1.88022 z m -2.77849,-2.733632 c 0,-1.257714 0.47229,-2.286754 1.04953,-2.286754 0.57723,0 0.76887,1.02904 0.42584,2.286754 -0.34303,1.257722 -0.81531,2.286762 -1.04953,2.286762 -0.2342,0 -0.42584,-1.02904 -0.42584,-2.286762 z m -10.74977,-16.6425 c -0.047,-1.607081 0.20903,-2.507491 0.56909,-2.000912 0.36005,0.506581 0.39854,1.821465 0.0855,2.921967 -0.34588,1.216147 -0.60264,0.854905 -0.65462,-0.921055 z m -0.98694,-10.507416 c -0.13034,-4.155645 -0.56728,-5.50093 -1.53655,-4.730987 -1.07526,0.85413 -1.07898,0.657962 -0.0181,-0.951772 1.93781,-2.940236 2.65995,-1.068569 2.16827,5.619791 l -0.4315,5.86983 z"
       style="fill:#3d3d3e;stroke-width:1.28524256" />
  </g>
</svg>
